<svg width="271" height="296" viewBox="0 0 271 296" fill="none" xmlns="http://www.w3.org/2000/svg">
<path d="M6.16861 180.179C4.51276 180.179 3.03121 178.904 2.69132 177.06C-0.37926 160.39 -0.824971 143.48 1.36747 126.801C3.48605 110.68 8.01494 95.1238 14.8272 80.5646C15.7211 78.6543 17.8608 77.8981 19.6063 78.8769C21.3518 79.8551 22.0424 82.1968 21.1484 84.1071C14.6944 97.901 10.4037 112.637 8.39674 127.907C6.32008 143.706 6.74297 159.726 9.65295 175.524C10.0406 177.628 8.79598 179.677 6.8737 180.102C6.63715 180.153 6.40101 180.179 6.16861 180.179Z" fill="url(#paint0_linear_1_75)"/>
<path d="M28.8737 66.8692C28.1474 66.8692 27.4149 66.6262 26.7837 66.1221C25.1993 64.8572 24.8523 62.426 26.0081 60.6925C45.9443 30.792 75.1985 10.2927 108.382 2.97155C137.825 -3.52485 167.602 0.676644 194.497 15.1232C196.257 16.0688 196.984 18.3973 196.12 20.3239C195.256 22.2505 193.129 23.0457 191.368 22.1001C165.892 8.41564 137.681 4.43578 109.786 10.5906C78.3475 17.5267 50.6321 36.9468 31.7451 65.2732C31.0499 66.316 29.9693 66.8692 28.8737 66.8692Z" fill="url(#paint1_linear_1_75)"/>
<path d="M263.969 123.292C262.314 123.292 260.832 122.018 260.492 120.173C253.982 84.8237 235.547 53.9517 208.584 33.2449C206.98 32.0119 206.592 29.5884 207.717 27.8322C208.845 26.0745 211.059 25.6503 212.664 26.8834C241.124 48.7406 260.582 81.3262 267.454 118.638C267.841 120.742 266.597 122.791 264.675 123.215C264.438 123.267 264.202 123.292 263.969 123.292Z" fill="url(#paint2_linear_1_75)"/>
<path d="M266.64 154.63C266.618 154.63 266.595 154.63 266.572 154.629C264.611 154.588 263.052 152.815 263.088 150.669C263.266 140.474 262.417 130.208 260.564 120.157C260.176 118.053 261.42 116.004 263.342 115.579C265.267 115.154 267.138 116.516 267.525 118.62C269.48 129.224 270.376 140.056 270.19 150.817C270.153 152.938 268.57 154.63 266.64 154.63Z" fill="url(#paint3_linear_1_75)"/>
<path d="M7.49744 186.305C5.90135 186.305 4.45093 185.119 4.05211 183.347C3.5732 181.217 3.13828 179.098 2.7598 177.05C2.37136 174.946 3.61512 172.896 5.53698 172.471C7.46175 172.045 9.33257 173.407 9.72101 175.51C10.0796 177.453 10.4921 179.464 10.9478 181.489C11.4167 183.573 10.2535 185.678 8.34902 186.191C8.06433 186.268 7.7784 186.305 7.49744 186.305Z" fill="url(#paint4_linear_1_75)"/>
<path d="M101.124 290.778C100.291 290.778 99.456 290.46 98.7817 289.811C97.3084 288.395 97.1636 285.94 98.458 284.327C112.844 266.409 123.51 244.825 129.305 221.91C135.381 197.884 136.161 173.222 131.624 148.61C131.236 146.506 132.48 144.457 134.402 144.033C136.325 143.607 138.198 144.97 138.585 147.073C143.346 172.893 142.526 198.77 136.15 223.983C130.07 248.023 118.881 270.663 103.792 289.457C103.091 290.332 102.11 290.778 101.124 290.778Z" fill="url(#paint5_linear_1_75)"/>
<path d="M84.1239 284.408C83.23 284.408 82.3352 284.04 81.6447 283.303C80.2407 281.804 80.2125 279.345 81.5824 277.808C93.6959 264.217 103.035 248.362 109.338 230.684C110.051 228.685 112.111 227.698 113.937 228.476C115.764 229.257 116.667 231.51 115.954 233.509C109.302 252.164 99.4482 268.894 86.6657 283.235C85.9702 284.016 85.0472 284.408 84.1239 284.408Z" fill="url(#paint6_linear_1_75)"/>
<path d="M119.533 294.658C118.768 294.658 117.997 294.389 117.348 293.834C115.803 292.512 115.529 290.07 116.737 288.379C145.742 247.758 157.043 195.52 147.741 145.057L147.502 143.76C146.637 140.589 144.804 137.873 142.253 136.018C139.367 133.92 135.907 133.177 132.512 133.927C126.087 135.344 121.725 141.762 122.126 148.731L122.476 150.628C126.17 170.691 126.073 190.931 122.187 210.785C121.776 212.884 119.888 214.219 117.971 213.771C116.054 213.322 114.832 211.256 115.243 209.158C118.682 191.587 118.987 173.692 116.157 155.911L116.084 155.925L115.396 152.187C113.209 140.311 120.258 128.701 131.108 126.308C136.362 125.146 141.716 126.296 146.183 129.545C150.65 132.792 153.694 137.749 154.755 143.501L155.38 146.891L155.299 146.92C163.899 198.55 151.966 251.665 122.332 293.165C121.632 294.145 120.587 294.658 119.533 294.658Z" fill="url(#paint7_linear_1_75)"/>
<path d="M68.5917 275.883C67.643 275.883 66.6972 275.469 65.9979 274.651C64.6583 273.084 64.733 270.625 66.1652 269.159C92.5708 242.124 105.449 202.655 100.613 163.578C100.35 161.451 101.712 159.493 103.655 159.205C105.6 158.917 107.388 160.408 107.651 162.535C112.795 204.102 99.0991 246.083 71.0169 274.834C70.3322 275.536 69.4611 275.883 68.5917 275.883Z" fill="url(#paint8_linear_1_75)"/>
<path d="M170.937 183.388C168.981 183.388 167.392 181.655 167.387 179.512C167.357 166.846 166.169 154.056 163.858 141.498L163.581 139.995C161.801 132.206 157.493 125.518 151.342 121.045C144.803 116.289 136.963 114.607 129.266 116.306C117.714 118.855 108.694 128.659 106.286 141.282C105.885 143.383 104.004 144.732 102.084 144.292C100.164 143.854 98.9327 141.794 99.3336 139.694C102.323 124.023 113.521 111.852 127.862 108.687C137.417 106.576 147.153 108.667 155.273 114.572C163.393 120.477 168.925 129.49 170.85 139.95L171.423 143.064L171.371 143.088C173.412 155.137 174.459 167.368 174.488 179.492C174.494 181.638 172.908 183.382 170.947 183.388C170.944 183.388 170.941 183.388 170.937 183.388Z" fill="url(#paint9_linear_1_75)"/>
<path d="M139.273 295.577C138.582 295.577 137.884 295.357 137.271 294.898C135.652 293.687 135.238 291.268 136.346 289.497C152.66 263.398 163.003 233.1 166.256 201.878C166.478 199.747 168.24 198.214 170.186 198.458C172.134 198.701 173.534 200.627 173.312 202.759C169.929 235.235 159.173 266.745 142.207 293.884C141.519 294.985 140.405 295.577 139.273 295.577Z" fill="url(#paint10_linear_1_75)"/>
<path d="M54.5576 265.508C53.5629 265.508 52.5739 265.053 51.8717 264.166C50.5877 262.544 50.7487 260.089 52.2311 258.685C64.7637 246.806 74.2996 231.479 79.8075 214.362C85.0975 197.921 86.4993 180.238 83.9072 162.986L83.8786 162.991L83.1968 159.293C80.4013 144.126 83.1698 128.677 90.9938 115.791C98.8165 102.906 110.758 94.126 124.617 91.0681C129.436 90.004 134.347 89.6742 139.213 90.0875C141.168 90.2542 142.629 92.1236 142.477 94.2631C142.325 96.4027 140.621 98.0014 138.662 97.8361C134.451 97.4768 130.198 97.7639 126.021 98.6863C114.021 101.334 103.682 108.936 96.9092 120.092C90.6784 130.354 88.151 142.495 89.6695 154.596L90.2489 157.739C93.8955 177.527 92.6011 198 86.506 216.942C80.5889 235.331 70.3446 251.797 56.8804 264.559C56.2089 265.196 55.3814 265.508 54.5576 265.508Z" fill="url(#paint11_linear_1_75)"/>
<path d="M160.236 292.969C159.625 292.969 159.007 292.797 158.443 292.434C156.751 291.348 156.184 288.967 157.176 287.116C181.306 242.103 189.4 189.125 179.968 137.942L179.658 136.258C176.691 122.585 168.635 110.904 157.368 104.027C155.655 102.981 155.041 100.614 155.996 98.7399C156.951 96.866 159.114 96.1933 160.827 97.2388C174.366 105.503 183.889 119.775 186.955 136.394L187.564 139.695L187.516 139.714C196.354 191.744 187.798 245.353 163.302 291.048C162.641 292.283 161.455 292.969 160.236 292.969Z" fill="url(#paint12_linear_1_75)"/>
<path d="M42.0723 253.474C41.0448 253.474 40.0255 252.988 39.3234 252.051C38.0804 250.39 38.3033 247.942 39.8201 246.582C50.3358 237.155 58.4984 224.837 63.4253 210.959C64.1354 208.958 66.193 207.967 68.021 208.744C69.8491 209.522 70.7551 211.773 70.045 213.773C64.6757 228.897 55.7802 242.321 44.32 252.594C43.6605 253.187 42.8637 253.474 42.0723 253.474Z" fill="url(#paint13_linear_1_75)"/>
<path d="M201.007 221.704C200.815 221.704 200.621 221.687 200.426 221.651C198.491 221.303 197.18 219.304 197.499 217.187C201.625 189.751 201.149 161.893 196.085 134.388L195.892 133.341C192.437 115.947 183.101 100.978 169.522 91.1053C155.674 81.0369 139.072 77.4726 122.775 81.0705C106.473 84.6666 92.4284 94.9934 83.2275 110.149C74.6208 124.325 71.2157 141.139 73.5024 157.852L74.1356 161.295C75.8778 170.767 76.2895 180.381 75.3578 189.869C75.1487 192.003 73.3969 193.547 71.4481 193.318C69.498 193.089 68.0874 191.173 68.297 189.039C69.0258 181.612 68.8573 174.098 67.7965 166.648L67.0968 162.851C63.4332 142.978 67.0616 122.733 77.3125 105.848C87.5638 88.9635 103.211 77.4581 121.372 73.4518C139.528 69.4443 158.024 73.4146 173.453 84.6321C188.881 95.8504 199.393 112.973 203.054 132.845L203.387 134.656L203.376 134.671C208.301 162.511 208.682 190.686 204.507 218.449C204.22 220.353 202.714 221.704 201.007 221.704Z" fill="url(#paint14_linear_1_75)"/>
<path d="M182.249 286.07C181.727 286.07 181.197 285.943 180.696 285.676C178.933 284.736 178.2 282.41 179.06 280.481C184.948 267.255 189.689 253.37 193.151 239.213C193.658 237.14 195.603 235.912 197.499 236.463C199.393 237.018 200.518 239.149 200.011 241.222C196.432 255.859 191.531 270.213 185.443 283.885C184.829 285.266 183.565 286.07 182.249 286.07Z" fill="url(#paint15_linear_1_75)"/>
<path d="M205.119 273.555C204.697 273.555 204.268 273.471 203.851 273.297C202.019 272.53 201.102 270.284 201.803 268.279C216.998 224.807 220.649 177.641 212.377 131.813L212.192 130.829C209.929 118.547 205.39 107.224 198.703 97.1757C197.549 95.4408 197.897 93.0101 199.483 91.7466C201.068 90.4826 203.289 90.8655 204.444 92.6C211.445 103.12 216.286 114.918 218.845 127.688L218.86 127.698L219.159 129.297C227.929 176.877 224.221 225.896 208.436 271.055C207.895 272.603 206.548 273.555 205.119 273.555Z" fill="url(#paint16_linear_1_75)"/>
<path d="M187.208 82.1464C186.416 82.1469 185.621 81.8585 184.961 81.2672C166.607 64.8195 142.757 58.3249 119.523 63.4493C113.544 64.7673 107.725 66.8337 102.23 69.5905C100.447 70.4843 98.3397 69.6282 97.5221 67.6771C96.705 65.7265 97.4877 63.4198 99.2705 62.5251C105.263 59.5189 111.605 57.2663 118.12 55.8302C143.448 50.2417 169.451 57.3226 189.46 75.254C190.977 76.6138 191.2 79.0622 189.957 80.7226C189.255 81.6609 188.235 82.1464 187.208 82.1464Z" fill="url(#paint17_linear_1_75)"/>
<path d="M31.1778 239.974C30.1386 239.974 29.109 239.477 28.4072 238.522C27.1788 236.849 27.4228 234.403 28.9513 233.059C46.4651 217.661 54.9705 193.519 51.5514 169.443L50.9915 166.404C44.6657 132.072 56.1815 97.0177 81.0446 74.9202C82.5672 73.5672 84.8036 73.8211 86.0395 75.487C87.2762 77.1533 87.0442 79.6004 85.5216 80.9533C63.5382 100.491 52.93 131.068 57.3879 161.452L58.015 164.853C63.1631 192.786 53.7309 221.242 33.3993 239.118C32.744 239.694 31.9584 239.974 31.1778 239.974Z" fill="url(#paint18_linear_1_75)"/>
<path d="M21.8963 225.05C20.8891 225.05 19.8881 224.583 19.1855 223.676C17.9177 222.039 18.1023 219.587 19.5988 218.199C31.8169 206.868 37.7269 189.446 35.319 172.259L34.8937 169.956C33.8246 164.164 33.1685 158.218 32.9427 152.286C32.8614 150.142 34.3836 148.331 36.3428 148.241C38.3021 148.158 39.9567 149.818 40.0384 151.962C40.2048 156.338 40.6227 160.72 41.2834 165.032L41.9047 168.406C45.7181 189.106 38.9299 210.457 24.19 224.129C23.5231 224.747 22.7072 225.05 21.8963 225.05Z" fill="url(#paint19_linear_1_75)"/>
<path d="M234.022 144.373C232.293 144.373 230.777 142.988 230.514 141.059C229.971 137.062 229.345 133.062 228.649 129.143L228.293 127.277C223.273 100.026 208.858 76.5466 187.701 61.1639C166.545 45.7813 141.18 40.3363 116.277 45.8308C97.1221 50.0573 79.8842 60.4259 66.4258 75.8153C53.2686 90.861 44.6001 109.614 41.3573 130.046C41.022 132.161 39.1856 133.578 37.2509 133.209C35.3186 132.842 34.0242 130.83 34.36 128.716C37.8451 106.757 47.159 86.6059 61.2947 70.4412C75.7612 53.8986 94.2884 42.7534 114.873 38.2113C141.635 32.3071 168.895 38.159 191.631 54.6902C213.639 70.6919 228.859 94.8454 234.705 122.937L234.738 122.941L235.273 125.742C236.128 130.383 236.891 135.151 237.539 139.914C237.827 142.037 236.489 144.014 234.549 144.33C234.372 144.359 234.196 144.373 234.022 144.373Z" fill="url(#paint20_linear_1_75)"/>
<path d="M228.419 253.107C228.115 253.107 227.808 253.064 227.501 252.974C225.606 252.421 224.48 250.292 224.985 248.218C231.732 220.538 234.316 192 232.668 163.395C232.544 161.253 234.031 159.407 235.988 159.272C237.946 159.13 239.632 160.763 239.755 162.905C241.453 192.35 238.792 221.728 231.847 250.221C231.424 251.959 229.988 253.107 228.419 253.107Z" fill="black"/>
<path d="M14.1395 208.31C13.2755 208.31 12.4098 207.967 11.7259 207.273C10.2879 205.814 10.2028 203.356 11.5362 201.782C17.6857 194.524 20.4492 184.54 19.0515 174.834L18.7921 173.506C12.5285 139.514 18.7356 104.888 36.2706 76.0065C53.8048 47.1256 80.5673 27.4457 111.628 20.5923C124.674 17.7129 137.91 17.2337 150.968 19.1671C152.912 19.4546 154.275 21.4121 154.012 23.5389C153.748 25.6654 151.957 27.1577 150.016 26.8684C137.744 25.0518 125.301 25.5028 113.032 28.211C83.8305 34.6542 58.6703 53.1556 42.186 80.3075C26.0741 106.845 20.1354 138.543 25.3723 169.8L25.7944 171.962C28.1076 184.524 24.7245 197.647 16.7441 207.066C16.0448 207.892 15.0936 208.31 14.1395 208.31Z" fill="black"/>
<path d="M251.144 219.377C250.997 219.377 250.85 219.367 250.701 219.347C248.755 219.082 247.374 217.14 247.616 215.011C250.974 185.496 250.05 155.636 244.872 126.217L244.391 123.725C236.411 80.3942 207.533 45.0823 169.028 31.5695C167.16 30.9137 166.132 28.726 166.731 26.6822C167.33 24.6385 169.331 23.5144 171.197 24.1684C211.068 38.1608 241.235 74.1345 250.635 118.557L250.682 118.549L251.384 122.184C257.108 153.233 258.211 184.787 254.663 215.971C254.439 217.937 252.909 219.377 251.144 219.377Z" fill="black"/>
<ellipse cx="136.5" cy="148.5" rx="78.5" ry="83.5" fill="white"/>
<g filter="url(#filter0_d_1_75)">
<path d="M103.872 186H94.0881L116.072 124.909H126.722L148.706 186H138.922L121.651 136.006H121.173L103.872 186ZM105.513 162.077H137.251V169.832H105.513V162.077ZM166.745 124.909V186H157.528V124.909H166.745Z" fill="black"/>
</g>
<defs>
<filter id="filter0_d_1_75" x="90.0881" y="124.909" width="80.6573" height="69.0909" filterUnits="userSpaceOnUse" color-interpolation-filters="sRGB">
<feFlood flood-opacity="0" result="BackgroundImageFix"/>
<feColorMatrix in="SourceAlpha" type="matrix" values="0 0 0 0 0 0 0 0 0 0 0 0 0 0 0 0 0 0 127 0" result="hardAlpha"/>
<feOffset dy="4"/>
<feGaussianBlur stdDeviation="2"/>
<feComposite in2="hardAlpha" operator="out"/>
<feColorMatrix type="matrix" values="0 0 0 0 0 0 0 0 0 0 0 0 0 0 0 0 0 0 0.25 0"/>
<feBlend mode="normal" in2="BackgroundImageFix" result="effect1_dropShadow_1_75"/>
<feBlend mode="normal" in="SourceGraphic" in2="effect1_dropShadow_1_75" result="shape"/>
</filter>
<linearGradient id="paint0_linear_1_75" x1="10.7698" y1="-0.309554" x2="10.7698" y2="312.032" gradientUnits="userSpaceOnUse">
<stop/>
</linearGradient>
<linearGradient id="paint1_linear_1_75" x1="110.905" y1="-0.309759" x2="110.905" y2="312.032" gradientUnits="userSpaceOnUse">
<stop/>
</linearGradient>
<linearGradient id="paint2_linear_1_75" x1="237.299" y1="-0.309634" x2="237.299" y2="312.032" gradientUnits="userSpaceOnUse">
<stop/>
</linearGradient>
<linearGradient id="paint3_linear_1_75" x1="265.354" y1="-0.309817" x2="265.354" y2="312.032" gradientUnits="userSpaceOnUse">
<stop/>
</linearGradient>
<linearGradient id="paint4_linear_1_75" x1="6.87046" y1="-0.307031" x2="6.87046" y2="312.029" gradientUnits="userSpaceOnUse">
<stop/>
</linearGradient>
<linearGradient id="paint5_linear_1_75" x1="119.604" y1="-0.309609" x2="119.604" y2="312.032" gradientUnits="userSpaceOnUse">
<stop/>
</linearGradient>
<linearGradient id="paint6_linear_1_75" x1="98.3855" y1="-0.309953" x2="98.3855" y2="312.031" gradientUnits="userSpaceOnUse">
<stop/>
</linearGradient>
<linearGradient id="paint7_linear_1_75" x1="136.513" y1="-0.309492" x2="136.513" y2="312.032" gradientUnits="userSpaceOnUse">
<stop/>
</linearGradient>
<linearGradient id="paint8_linear_1_75" x1="86.878" y1="-0.308954" x2="86.878" y2="312.032" gradientUnits="userSpaceOnUse">
<stop/>
</linearGradient>
<linearGradient id="paint9_linear_1_75" x1="136.874" y1="-0.309301" x2="136.874" y2="312.032" gradientUnits="userSpaceOnUse">
<stop offset="1"/>
</linearGradient>
<linearGradient id="paint10_linear_1_75" x1="154.529" y1="-0.309672" x2="154.529" y2="312.031" gradientUnits="userSpaceOnUse">
<stop/>
</linearGradient>
<linearGradient id="paint11_linear_1_75" x1="96.7468" y1="-0.309534" x2="96.7468" y2="312.032" gradientUnits="userSpaceOnUse">
<stop/>
</linearGradient>
<linearGradient id="paint12_linear_1_75" x1="173.227" y1="-0.309667" x2="173.227" y2="312.031" gradientUnits="userSpaceOnUse">
<stop/>
</linearGradient>
<linearGradient id="paint13_linear_1_75" x1="54.4031" y1="-0.310771" x2="54.4031" y2="312.032" gradientUnits="userSpaceOnUse">
<stop/>
</linearGradient>
<linearGradient id="paint14_linear_1_75" x1="136.541" y1="-0.309502" x2="136.541" y2="312.031" gradientUnits="userSpaceOnUse">
<stop/>
</linearGradient>
<linearGradient id="paint15_linear_1_75" x1="189.416" y1="-0.309086" x2="189.416" y2="312.031" gradientUnits="userSpaceOnUse">
<stop/>
</linearGradient>
<linearGradient id="paint16_linear_1_75" x1="210.911" y1="-0.309543" x2="210.911" y2="312.031" gradientUnits="userSpaceOnUse">
<stop/>
</linearGradient>
<linearGradient id="paint17_linear_1_75" x1="143.98" y1="-0.30949" x2="143.98" y2="312.033" gradientUnits="userSpaceOnUse">
<stop/>
</linearGradient>
<linearGradient id="paint18_linear_1_75" x1="57.2295" y1="-0.309718" x2="57.2295" y2="312.031" gradientUnits="userSpaceOnUse">
<stop/>
</linearGradient>
<linearGradient id="paint19_linear_1_75" x1="30.6466" y1="-0.309682" x2="30.6466" y2="312.031" gradientUnits="userSpaceOnUse">
<stop/>
</linearGradient>
<linearGradient id="paint20_linear_1_75" x1="135.943" y1="-0.309712" x2="135.943" y2="312.031" gradientUnits="userSpaceOnUse">
<stop/>
</linearGradient>
</defs>
</svg>
